<svg xmlns="http://www.w3.org/2000/svg" xmlns:xlink="http://www.w3.org/1999/xlink" width="250" zoomAndPan="magnify" viewBox="0 0 187.5 112.499997" height="150" preserveAspectRatio="xMidYMid meet" version="1.0"><defs><clipPath id="adf0b24393"><path d="M 14.261719 42 L 97 42 L 97 79.917969 L 14.261719 79.917969 Z M 14.261719 42 " clip-rule="nonzero"/></clipPath><clipPath id="27030cd8ca"><path d="M 26 32.128906 L 172.558594 32.128906 L 172.558594 79.917969 L 26 79.917969 Z M 26 32.128906 " clip-rule="nonzero"/></clipPath></defs><g clip-path="url(#adf0b24393)"><path fill="#4357ad" d="M 96.070312 74.460938 C 94.699219 56.835938 79.917969 42.90625 61.945312 42.90625 L 35.597656 42.90625 L 32.589844 48.277344 L 61.945312 48.277344 C 76.953125 48.277344 89.324219 59.796875 90.683594 74.460938 L 85.28125 74.460938 C 83.945312 62.765625 73.992188 53.648438 61.945312 53.648438 L 23.425781 53.648438 L 26.433594 48.277344 L 29.433594 42.90625 L 23.28125 42.90625 L 20.273438 48.277344 L 14.261719 59.023438 L 61.945312 59.023438 C 71.9375 59.023438 80.0625 67.148438 80.0625 77.148438 L 80.0625 79.835938 L 96.179688 79.835938 L 96.179688 77.148438 C 96.179688 76.242188 96.140625 75.351562 96.070312 74.460938 Z M 96.070312 74.460938 " fill-opacity="1" fill-rule="nonzero"/></g><g clip-path="url(#27030cd8ca)"><path fill="#48a9a6" d="M 166.714844 48.277344 L 163.707031 42.90625 L 125.042969 42.90625 C 119.171875 42.90625 113.636719 44.394531 108.804688 47.011719 C 107.828125 45.492188 106.777344 44.027344 105.65625 42.613281 C 111.390625 39.375 118.003906 37.535156 125.042969 37.535156 L 160.699219 37.535156 L 157.695312 32.160156 L 125.042969 32.160156 C 116.652344 32.160156 108.789062 34.472656 102.058594 38.5 C 100.492188 39.429688 98.988281 40.457031 97.554688 41.570312 C 98.828125 42.835938 100.03125 44.171875 101.160156 45.570312 C 102.28125 46.964844 103.332031 48.417969 104.300781 49.929688 C 105.28125 51.441406 106.179688 53.011719 106.984375 54.632812 C 108.390625 53.511719 109.894531 52.515625 111.488281 51.664062 L 111.488281 51.65625 C 115.535156 49.5 120.144531 48.277344 125.042969 48.277344 L 160.550781 48.277344 L 163.558594 53.648438 L 125.042969 53.648438 C 120.945312 53.648438 117.085938 54.710938 113.722656 56.558594 C 112.089844 57.464844 110.578125 58.554688 109.210938 59.804688 C 107.644531 61.230469 106.285156 62.859375 105.152344 64.65625 C 104.550781 62.574219 103.804688 60.558594 102.925781 58.617188 C 102.132812 56.875 101.238281 55.191406 100.238281 53.582031 C 100.238281 53.574219 100.238281 53.574219 100.238281 53.574219 C 99.28125 52.015625 98.226562 50.535156 97.09375 49.105469 C 95.972656 47.710938 94.765625 46.375 93.492188 45.117188 C 85.375 37.113281 74.222656 32.160156 61.945312 32.160156 L 29.289062 32.160156 L 26.289062 37.535156 L 61.945312 37.535156 C 72.839844 37.535156 82.726562 41.960938 89.894531 49.113281 C 91.191406 50.402344 92.394531 51.777344 93.492188 53.234375 C 94.660156 54.761719 95.710938 56.375 96.640625 58.0625 C 97.691406 59.964844 98.597656 61.96875 99.324219 64.050781 C 100.484375 67.339844 101.214844 70.832031 101.460938 74.464844 C 101.519531 75.351562 101.550781 76.242188 101.550781 77.148438 L 101.550781 79.835938 L 106.921875 79.835938 L 106.921875 77.148438 C 106.921875 72.820312 108.441406 68.84375 110.984375 65.730469 C 112.25 64.164062 113.777344 62.8125 115.496094 61.746094 C 118.273438 60.019531 121.542969 59.023438 125.042969 59.023438 L 172.722656 59.023438 Z M 166.714844 48.277344 " fill-opacity="1" fill-rule="nonzero"/></g></svg>