<svg xmlns="http://www.w3.org/2000/svg" xmlns:xlink="http://www.w3.org/1999/xlink" width="250" zoomAndPan="magnify" viewBox="0 0 187.5 112.499997" height="150" preserveAspectRatio="xMidYMid meet" version="1.0"><defs><clipPath id="2d1e449c05"><path d="M 20.304688 43 L 96 43 L 96 78.003906 L 20.304688 78.003906 Z M 20.304688 43 " clip-rule="nonzero"/></clipPath><clipPath id="7cd6816657"><path d="M 31 33.949219 L 166.65625 33.949219 L 166.65625 78.003906 L 31 78.003906 Z M 31 33.949219 " clip-rule="nonzero"/></clipPath></defs><g clip-path="url(#2d1e449c05)"><path fill="#48a9a6" d="M 95.875 73.054688 C 94.605469 56.769531 80.949219 43.902344 64.347656 43.902344 L 40.011719 43.902344 L 37.234375 48.867188 L 64.347656 48.867188 C 78.214844 48.867188 89.640625 59.507812 90.898438 73.054688 L 85.90625 73.054688 C 84.671875 62.25 75.480469 53.828125 64.347656 53.828125 L 28.769531 53.828125 L 31.546875 48.867188 L 34.320312 43.902344 L 28.632812 43.902344 L 25.855469 48.867188 L 20.304688 58.789062 L 64.347656 58.789062 C 73.578125 58.789062 81.085938 66.296875 81.085938 75.535156 L 81.085938 78.015625 L 95.972656 78.015625 L 95.972656 75.535156 C 95.972656 74.699219 95.9375 73.875 95.875 73.054688 Z M 95.875 73.054688 " fill-opacity="1" fill-rule="nonzero"/></g><g clip-path="url(#7cd6816657)"><path fill="#4357ad" d="M 161.128906 48.867188 L 158.347656 43.902344 L 122.632812 43.902344 C 117.210938 43.902344 112.101562 45.28125 107.632812 47.695312 C 106.734375 46.292969 105.761719 44.9375 104.726562 43.632812 C 110.023438 40.644531 116.132812 38.941406 122.632812 38.941406 L 155.570312 38.941406 L 152.796875 33.980469 L 122.632812 33.980469 C 114.886719 33.980469 107.621094 36.113281 101.402344 39.835938 C 99.957031 40.691406 98.566406 41.644531 97.242188 42.671875 C 98.417969 43.839844 99.53125 45.074219 100.574219 46.363281 C 101.609375 47.65625 102.578125 48.996094 103.472656 50.390625 C 104.378906 51.789062 105.210938 53.242188 105.953125 54.738281 C 107.25 53.703125 108.640625 52.78125 110.117188 51.992188 L 110.117188 51.984375 C 113.851562 49.992188 118.113281 48.867188 122.636719 48.867188 L 155.433594 48.867188 L 158.214844 53.828125 L 122.632812 53.828125 C 118.847656 53.828125 115.28125 54.808594 112.179688 56.515625 C 110.667969 57.351562 109.273438 58.359375 108.011719 59.515625 C 106.5625 60.832031 105.308594 62.335938 104.261719 63.992188 C 103.703125 62.074219 103.015625 60.210938 102.203125 58.414062 C 101.472656 56.804688 100.644531 55.253906 99.722656 53.765625 C 99.722656 53.757812 99.722656 53.757812 99.722656 53.757812 C 98.835938 52.320312 97.867188 50.949219 96.816406 49.632812 C 95.78125 48.34375 94.667969 47.109375 93.492188 45.945312 C 85.992188 38.550781 75.691406 33.980469 64.347656 33.980469 L 34.183594 33.980469 L 31.414062 38.941406 L 64.347656 38.941406 C 74.414062 38.941406 83.546875 43.03125 90.167969 49.640625 C 91.363281 50.832031 92.476562 52.097656 93.492188 53.445312 C 94.570312 54.855469 95.539062 56.34375 96.398438 57.90625 C 97.371094 59.664062 98.207031 61.511719 98.878906 63.433594 C 99.949219 66.476562 100.625 69.703125 100.851562 73.054688 C 100.90625 73.875 100.933594 74.699219 100.933594 75.535156 L 100.933594 78.015625 L 105.898438 78.015625 L 105.898438 75.535156 C 105.898438 71.539062 107.300781 67.867188 109.648438 64.988281 C 110.816406 63.539062 112.226562 62.292969 113.816406 61.308594 C 116.382812 59.710938 119.402344 58.792969 122.632812 58.792969 L 166.679688 58.792969 Z M 161.128906 48.867188 " fill-opacity="1" fill-rule="nonzero"/></g></svg>